<svg width="38" height="39" viewBox="0 0 38 39" fill="none" xmlns="http://www.w3.org/2000/svg">
<path d="M33.9286 0H4.07143C2.99162 0 1.95603 0.440241 1.19249 1.22388C0.428953 2.00751 0 3.07035 0 4.17857L0 34.8214C0 35.9297 0.428953 36.9925 1.19249 37.7761C1.95603 38.5598 2.99162 39 4.07143 39H15.7132V25.7409H10.3694V19.5H15.7132V14.7434C15.7132 9.33301 18.8516 6.34446 23.6584 6.34446C25.9604 6.34446 28.3677 6.7658 28.3677 6.7658V12.0761H25.7153C23.102 12.0761 22.2868 13.7405 22.2868 15.4477V19.5H28.1208L27.1878 25.7409H22.2868V39H33.9286C35.0084 39 36.044 38.5598 36.8075 37.7761C37.571 36.9925 38 35.9297 38 34.8214V4.17857C38 3.07035 37.571 2.00751 36.8075 1.22388C36.044 0.440241 35.0084 0 33.9286 0Z" fill="#3532DB"/>
</svg>
