<svg width="40" height="41" viewBox="0 0 40 41" fill="none" xmlns="http://www.w3.org/2000/svg">
<path d="M36.3424 17.1542H34.9999V17.0833H19.9999V23.9167H29.4191C28.0449 27.8945 24.3524 30.75 19.9999 30.75C14.4774 30.75 9.99992 26.1606 9.99992 20.5C9.99992 14.8394 14.4774 10.25 19.9999 10.25C22.5491 10.25 24.8683 11.2357 26.6341 12.8458L31.3483 8.0138C28.3716 5.17028 24.3899 3.41667 19.9999 3.41667C10.7958 3.41667 3.33325 11.0657 3.33325 20.5C3.33325 29.9343 10.7958 37.5833 19.9999 37.5833C29.2041 37.5833 36.6666 29.9343 36.6666 20.5C36.6666 19.3546 36.5516 18.2365 36.3424 17.1542Z" fill="#FFC107"/>
<path d="M5.25488 12.5486L10.7307 16.6648C12.2124 12.9048 15.8007 10.25 19.9999 10.25C22.5491 10.25 24.8682 11.2357 26.6341 12.8458L31.3482 8.0138C28.3716 5.17028 24.3899 3.41667 19.9999 3.41667C13.5982 3.41667 8.04655 7.12119 5.25488 12.5486Z" fill="#FF3D00"/>
<path d="M20.0001 37.5833C24.3051 37.5833 28.2168 35.8947 31.1743 33.1485L26.0159 28.6744C24.2864 30.0226 22.173 30.7518 20.0001 30.75C15.6651 30.75 11.9843 27.9167 10.5976 23.9628L5.1626 28.255C7.92093 33.7874 13.5226 37.5833 20.0001 37.5833Z" fill="#4CAF50"/>
<path d="M36.3425 17.1542H35V17.0833H20V23.9167H29.4192C28.7618 25.8098 27.5778 27.4642 26.0133 28.6752L26.0158 28.6735L31.1742 33.1476C30.8092 33.4876 36.6667 29.0417 36.6667 20.5C36.6667 19.3546 36.5517 18.2365 36.3425 17.1542Z" fill="#1976D2"/>
</svg>
