<svg width="38" height="39" viewBox="0 0 38 39" fill="none" xmlns="http://www.w3.org/2000/svg">
<g clip-path="url(#clip0_35_505)">
<path d="M26.5572 0.519001C26.4764 0.428751 23.5671 0.554626 21.0353 3.3025C18.5036 6.048 18.8931 9.19725 18.9501 9.278C19.0071 9.35875 22.5601 9.48463 24.8282 6.29025C27.0963 3.09588 26.6379 0.611626 26.5572 0.519001V0.519001ZM34.4279 28.3849C34.3139 28.1569 28.9061 25.4541 29.4096 20.2576C29.9131 15.0588 33.3877 13.6338 33.4423 13.4794C33.4969 13.325 32.0244 11.6031 30.4641 10.7315C29.3184 10.117 28.0504 9.7649 26.7519 9.70075C26.4954 9.69363 25.6048 9.47513 23.7737 9.97625C22.5672 10.3064 19.8478 11.3751 19.0997 11.4179C18.3492 11.4606 16.1167 10.1781 13.7156 9.8385C12.1789 9.54163 10.5497 10.1496 9.38357 10.6175C8.21982 11.083 6.00632 12.4083 4.45782 15.9304C2.90932 19.4501 3.7192 25.0266 4.2987 26.7604C4.8782 28.4918 5.78307 31.3299 7.32207 33.4009C8.69007 35.7379 10.5046 37.36 11.2622 37.911C12.0198 38.462 14.1573 38.8278 15.6393 38.0701C16.8316 37.3386 18.9833 36.9183 19.8336 36.9491C20.6814 36.98 22.3534 37.3149 24.0658 38.2292C25.4219 38.6971 26.7044 38.5024 27.9893 37.9799C29.2742 37.455 31.1338 35.4648 33.3046 31.4296C34.1287 29.5534 34.5039 28.5393 34.4279 28.3849V28.3849Z" fill="black"/>
<path d="M26.5572 0.519001C26.4764 0.428751 23.5671 0.554626 21.0353 3.3025C18.5036 6.048 18.8931 9.19725 18.9501 9.278C19.0071 9.35875 22.5601 9.48463 24.8282 6.29025C27.0963 3.09588 26.6379 0.611626 26.5572 0.519001V0.519001ZM34.4279 28.3849C34.3139 28.1569 28.9061 25.4541 29.4096 20.2576C29.9131 15.0588 33.3877 13.6338 33.4423 13.4794C33.4969 13.325 32.0244 11.6031 30.4641 10.7315C29.3184 10.117 28.0504 9.7649 26.7519 9.70075C26.4954 9.69363 25.6048 9.47513 23.7737 9.97625C22.5672 10.3064 19.8478 11.3751 19.0997 11.4179C18.3492 11.4606 16.1167 10.1781 13.7156 9.8385C12.1789 9.54163 10.5497 10.1496 9.38357 10.6175C8.21982 11.083 6.00632 12.4083 4.45782 15.9304C2.90932 19.4501 3.7192 25.0266 4.2987 26.7604C4.8782 28.4918 5.78307 31.3299 7.32207 33.4009C8.69007 35.7379 10.5046 37.36 11.2622 37.911C12.0198 38.462 14.1573 38.8278 15.6393 38.0701C16.8316 37.3386 18.9833 36.9183 19.8336 36.9491C20.6814 36.98 22.3534 37.3149 24.0658 38.2292C25.4219 38.6971 26.7044 38.5024 27.9893 37.9799C29.2742 37.455 31.1338 35.4648 33.3046 31.4296C34.1287 29.5534 34.5039 28.5393 34.4279 28.3849V28.3849Z" fill="black"/>
</g>
<defs>
<clipPath id="clip0_35_505">
<rect width="38" height="38" fill="white" transform="translate(0 0.5)"/>
</clipPath>
</defs>
</svg>
