<svg width="336" height="105" viewBox="0 0 336 105" fill="none" xmlns="http://www.w3.org/2000/svg">
<path d="M166.75 61.67C167.75 61.67 168.63 61.4 169.39 60.86C170.17 60.32 170.56 59.51 170.56 58.43C170.56 57.33 170.14 56.49 169.3 55.91C168.48 55.33 167.3 54.83 165.76 54.41C164.24 53.97 163.13 53.59 162.43 53.27C161.75 52.95 161.1 52.53 160.48 52.01C159.24 50.97 158.62 49.36 158.62 47.18C158.62 45.4 159.25 43.87 160.51 42.59C161.79 41.31 163.53 40.67 165.73 40.67C166.79 40.67 167.89 40.83 169.03 41.15C170.19 41.45 170.91 41.6 171.19 41.6C171.47 41.6 171.72 41.4 171.94 41H172.27L172.48 47.06H172C171.04 45.32 170.03 43.93 168.97 42.89C167.93 41.83 166.79 41.3 165.55 41.3C164.33 41.3 163.38 41.59 162.7 42.17C162.02 42.73 161.68 43.49 161.68 44.45C161.68 45.39 162.08 46.12 162.88 46.64C163.7 47.14 164.7 47.55 165.88 47.87C167.06 48.19 167.83 48.41 168.19 48.53C168.57 48.65 169.03 48.82 169.57 49.04C170.13 49.24 170.58 49.46 170.92 49.7C171.28 49.92 171.65 50.21 172.03 50.57C172.43 50.91 172.74 51.29 172.96 51.71C173.5 52.67 173.77 53.81 173.77 55.13C173.77 57.29 173.09 59.03 171.73 60.35C170.39 61.65 168.62 62.3 166.42 62.3C165.28 62.3 163.97 62.15 162.49 61.85C161.03 61.55 160.22 61.4 160.06 61.4C159.78 61.4 159.51 61.7 159.25 62.3H158.83L158.53 55.16H159.04C159.92 56.9 161.04 58.42 162.4 59.72C163.78 61.02 165.23 61.67 166.75 61.67ZM192.545 62H185.705L185.375 59.81C185.055 60.61 184.575 61.23 183.935 61.67C183.315 62.09 182.385 62.3 181.145 62.3C178.045 62.3 176.495 60.63 176.495 57.29V48.26H174.815V47.72H182.075V58.01C182.075 59.21 182.155 60 182.315 60.38C182.495 60.76 182.835 60.95 183.335 60.95C183.855 60.95 184.315 60.64 184.715 60.02C185.115 59.4 185.315 58.54 185.315 57.44V48.26H183.935V47.72H190.895V61.46H192.545V62ZM203.179 48.56C202.439 48.56 201.789 49.04 201.229 50C200.669 50.96 200.389 52.1 200.389 53.42V61.46H202.519V62H193.159V61.46H194.809V48.26H193.159V47.72H200.389V50.6C200.649 49.58 201.149 48.8 201.889 48.26C202.629 47.7 203.469 47.42 204.409 47.42C205.349 47.42 206.109 47.69 206.689 48.23C207.289 48.75 207.589 49.5 207.589 50.48C207.589 51.44 207.369 52.18 206.929 52.7C206.489 53.22 205.809 53.48 204.889 53.48C203.989 53.48 203.319 53.18 202.879 52.58C202.459 51.98 202.409 51.15 202.729 50.09H203.809C204.309 49.07 204.099 48.56 203.179 48.56ZM217.103 39.32C216.343 39.32 215.843 39.61 215.603 40.19C215.363 40.75 215.243 41.66 215.243 42.92V47.72H219.203V48.26H215.243V61.46H218.903V62H208.013V61.46H209.663V48.26H207.923V47.72H209.663V47.6C209.663 44.72 210.213 42.54 211.313 41.06C212.413 39.56 214.253 38.81 216.833 38.81C218.533 38.81 219.753 39.15 220.493 39.83C221.233 40.49 221.603 41.26 221.603 42.14C221.603 43.02 221.373 43.68 220.913 44.12C220.453 44.56 219.843 44.78 219.083 44.78C218.323 44.78 217.733 44.59 217.313 44.21C216.913 43.81 216.713 43.36 216.713 42.86C216.713 42.34 216.773 41.84 216.893 41.36H218.033C218.433 40 218.123 39.32 217.103 39.32ZM230.447 53.93C230.447 51.87 230.347 50.49 230.147 49.79C229.947 49.07 229.557 48.71 228.977 48.71C228.397 48.71 227.877 49.09 227.417 49.85C226.957 50.59 226.727 51.59 226.727 52.85V58.34C226.727 59.2 226.897 59.93 227.237 60.53C227.577 61.13 228.077 61.43 228.737 61.43C229.397 61.43 229.847 60.99 230.087 60.11C230.327 59.23 230.447 57.69 230.447 55.49V53.93ZM226.667 47.72V50.09C227.447 48.31 228.827 47.42 230.807 47.42C232.527 47.42 233.857 48.04 234.797 49.28C235.757 50.52 236.237 52.4 236.237 54.92C236.237 57.44 235.717 59.3 234.677 60.5C233.657 61.7 232.117 62.3 230.057 62.3C229.097 62.3 228.377 62.18 227.897 61.94C227.417 61.7 227.027 61.33 226.727 60.83V68.6H230.597V69.14H219.497V68.6H221.147V48.26H219.557V47.72H226.667ZM245.024 62.3C242.444 62.3 240.504 61.64 239.204 60.32C237.924 58.98 237.284 57.13 237.284 54.77C237.284 52.39 238.004 50.57 239.444 49.31C240.904 48.05 242.754 47.42 244.994 47.42C249.534 47.42 251.714 49.7 251.534 54.26H243.074V55.43C243.074 57.39 243.324 58.87 243.824 59.87C244.324 60.87 245.194 61.37 246.434 61.37C248.754 61.37 250.274 60.13 250.994 57.65L251.534 57.74C251.154 59.18 250.464 60.3 249.464 61.1C248.484 61.9 247.004 62.3 245.024 62.3ZM243.104 53.66H246.194V52.19C246.194 50.57 246.094 49.47 245.894 48.89C245.714 48.29 245.334 47.99 244.754 47.99C244.194 47.99 243.774 48.31 243.494 48.95C243.234 49.57 243.104 50.65 243.104 52.19V53.66ZM252.663 47.72H259.893V50.48C260.213 49.56 260.703 48.82 261.363 48.26C262.023 47.7 263.023 47.42 264.363 47.42C267.463 47.42 269.013 49.09 269.013 52.43V61.46H270.693V62H262.203V61.46H263.433V51.71C263.433 50.51 263.353 49.74 263.193 49.4C263.033 49.04 262.743 48.86 262.323 48.86C261.683 48.86 261.113 49.28 260.613 50.12C260.133 50.96 259.893 51.98 259.893 53.18V61.46H261.183V62H252.663V61.46H254.313V48.26H252.663V47.72ZM283.119 46.16L283.959 45.65C284.079 45.03 283.839 44.72 283.239 44.72C282.379 44.72 281.949 45.38 281.949 46.7C281.949 47.22 282.019 47.82 282.159 48.5C283.679 49.52 284.439 50.83 284.439 52.43C284.439 54.01 283.889 55.24 282.789 56.12C281.689 57 280.199 57.44 278.319 57.44C277.539 57.44 276.729 57.36 275.889 57.2C275.009 57.76 274.569 58.18 274.569 58.46C274.569 58.74 275.209 58.88 276.489 58.88H279.549C284.089 58.88 286.359 60.51 286.359 63.77C286.359 65.53 285.669 66.92 284.289 67.94C282.929 68.98 280.799 69.5 277.899 69.5C272.959 69.5 270.489 68.43 270.489 66.29C270.489 65.13 271.259 64.33 272.799 63.89L274.599 64.7C274.439 65.28 274.359 65.83 274.359 66.35C274.359 68.07 275.639 68.93 278.199 68.93C279.759 68.93 280.959 68.64 281.799 68.06C282.639 67.48 283.059 66.76 283.059 65.9C283.059 65.04 282.799 64.46 282.279 64.16C281.779 63.88 280.769 63.74 279.249 63.74H276.339C274.719 63.74 273.559 63.47 272.859 62.93C272.159 62.39 271.809 61.73 271.809 60.95C271.809 60.15 272.059 59.49 272.559 58.97C273.059 58.43 273.949 57.77 275.229 56.99C272.909 56.33 271.749 54.81 271.749 52.43C271.749 50.93 272.289 49.72 273.369 48.8C274.449 47.88 276.069 47.42 278.229 47.42C279.529 47.42 280.639 47.67 281.559 48.17C281.439 47.63 281.379 47.14 281.379 46.7C281.379 45.58 281.679 44.77 282.279 44.27C282.879 43.77 283.549 43.52 284.289 43.52C285.029 43.52 285.619 43.72 286.059 44.12C286.519 44.5 286.749 45.03 286.749 45.71C286.749 46.39 286.569 46.9 286.209 47.24C285.849 47.56 285.409 47.72 284.889 47.72C284.389 47.72 283.969 47.59 283.629 47.33C283.309 47.05 283.139 46.66 283.119 46.16ZM276.759 51.77V53.39C276.759 54.73 276.869 55.64 277.089 56.12C277.329 56.6 277.679 56.84 278.139 56.84C278.619 56.84 278.959 56.61 279.159 56.15C279.379 55.67 279.489 54.7 279.489 53.24V51.77C279.489 50.21 279.389 49.19 279.189 48.71C278.989 48.21 278.649 47.96 278.169 47.96C277.709 47.96 277.359 48.22 277.119 48.74C276.879 49.24 276.759 50.25 276.759 51.77ZM304.313 62H297.473L297.143 59.81C296.823 60.61 296.343 61.23 295.703 61.67C295.083 62.09 294.153 62.3 292.913 62.3C289.813 62.3 288.263 60.63 288.263 57.29V48.26H286.583V47.72H293.843V58.01C293.843 59.21 293.923 60 294.083 60.38C294.263 60.76 294.603 60.95 295.103 60.95C295.623 60.95 296.083 60.64 296.483 60.02C296.883 59.4 297.083 58.54 297.083 57.44V48.26H295.703V47.72H302.663V61.46H304.313V62ZM309.337 45.65C308.277 45.65 307.517 45.38 307.057 44.84C306.617 44.3 306.397 43.63 306.397 42.83C306.397 42.03 306.637 41.37 307.117 40.85C307.617 40.33 308.367 40.07 309.367 40.07C310.367 40.07 311.127 40.31 311.647 40.79C312.167 41.25 312.427 41.92 312.427 42.8C312.427 43.66 312.177 44.35 311.677 44.87C311.177 45.39 310.397 45.65 309.337 45.65ZM304.807 47.72H312.157V61.46H313.837V62H304.927V61.46H306.577V48.26H304.807V47.72ZM314.508 47.72H321.738V50.48C322.058 49.56 322.548 48.82 323.208 48.26C323.868 47.7 324.868 47.42 326.208 47.42C329.308 47.42 330.858 49.09 330.858 52.43V61.46H332.538V62H324.048V61.46H325.278V51.71C325.278 50.51 325.198 49.74 325.038 49.4C324.878 49.04 324.588 48.86 324.168 48.86C323.528 48.86 322.958 49.28 322.458 50.12C321.978 50.96 321.738 51.98 321.738 53.18V61.46H323.028V62H314.508V61.46H316.158V48.26H314.508V47.72Z" fill="black"/>
<path d="M51.883 36.0826C7.86332 38.5161 -0.131711 66.7344 1.37324 80.5395C0.921753 69.1211 17.9276 57.0631 26.487 52.4615C28.9702 50.028 35.987 48.9517 39.185 48.7177L33.5415 52.4615C30.4375 53.6314 25.6405 65.0966 27.6157 71.8821C29.591 78.6676 40.0315 84.9852 47.3681 87.091C53.2374 88.7757 59.4077 88.8849 61.7592 88.7289C66.0483 90.2264 82.7344 82.8013 90.5413 78.9016C96.6551 75.9378 112.043 70.4782 124.685 72.3501C137.326 74.2219 146.506 80.3055 149.516 83.1133C147.447 78.4336 139.866 68.3723 126.096 65.5645C112.325 62.7567 97.972 66.7345 92.5165 69.0743C82.8096 74.5027 65.7097 76.0158 58.3731 76.0938C42.5711 74.0347 41.2543 61.9768 42.5711 56.2052C43.0414 52.7734 47.5375 45.8631 61.7592 45.676C75.9809 45.4888 83.675 54.3333 85.7443 58.779C87.5502 39.3116 63.9226 35.5367 51.883 36.0826Z" fill="black" stroke="black"/>
<path d="M51.3187 95.2805C39.8058 96.4036 28.0861 88.7289 23.6653 84.7512C27.5029 95.7952 41.6306 101.364 48.2147 102.768C51.1494 104.827 62.0414 104.562 67.1206 104.172C72.7641 103.423 88.472 96.8403 95.6205 93.6426C104.876 87.8398 119.229 83.8933 125.249 82.6454C137.439 81.5222 146.13 84.6732 148.952 86.3891C146.036 84.1272 137.383 79.276 126.096 77.9657C114.809 76.6554 105.215 79.6036 101.828 81.2415C92.2344 84.9072 71.6919 92.5662 66.2741 93.8766C60.8563 95.1869 54.0464 95.3584 51.3187 95.2805Z" fill="black" stroke="black"/>
<path d="M136.818 86.857C124.177 84.4236 101.452 95.8264 91.6699 101.832C109.504 95.0932 129.2 93.5646 136.818 93.6426C143.365 94.2041 152.714 98.8682 156.571 101.13C155.254 97.3863 149.46 89.2905 136.818 86.857Z" fill="black" stroke="black"/>
<path d="M105.796 8.78016C107.085 2.33773 113.635 0.297629 116.749 0.0828813C118.81 -0.290008 122.401 0.660839 122.401 1.6272C123.367 1.30508 126.734 6.09581 128.345 8.78016L134.465 10.7129C136.269 11.486 135.861 12.3235 135.432 12.6456C132.64 12.753 126.605 12.9033 124.802 12.6456C122.547 12.3235 120.614 12.9677 115.782 16.1889C110.95 19.4102 110.95 23.5977 109.018 27.1411C107.471 29.9757 107.944 36.4826 108.373 39.3817C107.343 43.7625 111.917 51.1928 114.172 52.9108C115.975 54.9724 118.574 53.7698 119.648 52.9108C120.507 52.4813 122.74 49.754 124.802 42.2808C127.379 32.9393 123.835 25.2083 124.157 23.5977C124.415 22.3092 125.768 21.7724 126.412 21.665C129.505 21.665 133.069 27.4632 134.465 30.3623C135.432 31.0065 136.505 40.4554 136.398 43.8914C136.656 45.953 135.861 47.5421 135.432 48.079C134.787 48.7232 133.821 48.4011 133.499 45.8241C133.241 43.7625 132.532 44.3209 132.21 44.8577C132.532 49.3675 126.734 56.7762 126.412 58.3868C126.154 59.6753 127.379 60.427 128.023 60.6417C129.569 62.4456 128.667 62.8965 128.023 62.8965C117.393 60.9638 107.085 62.5744 105.152 62.8965C103.606 63.1542 106.226 59.9975 107.729 58.3868C101.931 53.2329 102.897 46.4684 101.287 44.8577C99.9982 43.5693 99.4789 48.079 99.4789 48.079C98.1904 49.1098 97.6952 48.5085 97.3731 48.079C95.5692 36.2249 99.7066 28.2638 100.819 26.7361C100.819 23.1927 103.864 13.5046 105.796 8.78016Z" fill="black"/>
<circle cx="119.97" cy="6.8474" r="1.93273" fill="white"/>
</svg>
